<?xml version="1.0" encoding="UTF-8"?>
<!-- Created with Inkscape (http://www.inkscape.org/) -->
<svg width="391.88" height="405.63" version="1.1" viewBox="0 0 391.88 405.63" xmlns="http://www.w3.org/2000/svg">
 <g transform="translate(-5.6871 -3.6765)">
  <g transform="translate(-54.938 -45.373)">
   <path d="m124.95 391.25c-3.4462-3.75-3.4462-3.75 0.30383-0.30383 3.4904 3.2076 4.2098 4.0538 3.4462 4.0538-0.16711 0-1.8546-1.6875-3.75-3.75zm264.05-1.6276c0-0.20765 0.7875-0.99515 1.75-1.75 1.5861-1.2439 1.6214-1.2085 0.37756 0.37756-1.3064 1.6658-2.1276 2.1955-2.1276 1.3724zm-212.19-17.306c0.72187-0.28887 1.5844-0.25335 1.9167 0.0789 0.33229 0.33229-0.25834 0.56864-1.3125 0.52522-1.165-0.048-1.4019-0.28494-0.60417-0.60416zm127.35-36.317c0-1.375 0.22698-1.9375 0.50439-1.25s0.27741 1.8125 0 2.5-0.50439 0.125-0.50439-1.25zm-115.16-41.378c0-0.20765 0.7875-0.99515 1.75-1.75 1.5861-1.2439 1.6214-1.2085 0.37756 0.37756-1.3064 1.6658-2.1276 2.1955-2.1276 1.3724zm25.812-10.306c0.72187-0.28887 1.5844-0.25335 1.9167 0.0789 0.33229 0.33229-0.25834 0.56864-1.3125 0.52522-1.165-0.048-1.4019-0.28494-0.60417-0.60416zm32.266-2.9002c0.048-1.165 0.28494-1.4019 0.60416-0.60417 0.28887 0.72187 0.25335 1.5844-0.0789 1.9167-0.3323 0.33229-0.56864-0.25834-0.52522-1.3125zm-38.207-17.167c-1.2439-1.5861-1.2085-1.6214 0.37756-0.37756 0.9625 0.75485 1.75 1.5424 1.75 1.75 0 0.82304-0.82119 0.29331-2.1276-1.3724zm61-2c-1.2439-1.5861-1.2085-1.6214 0.37756-0.37756 1.6658 1.3064 2.1955 2.1276 1.3724 2.1276-0.20765 0-0.99515-0.7875-1.75-1.75zm65.285-16.25c0-1.375 0.22698-1.9375 0.50439-1.25s0.27741 1.8125 0 2.5-0.50439 0.125-0.50439-1.25zm-146.41-5.6623c0.6875-0.27741 1.8125-0.27741 2.5 0s0.125 0.50439-1.25 0.50439-1.9375-0.22698-1.25-0.50439zm46.122-5.0877c-1.2439-1.5861-1.2085-1.6214 0.37756-0.37756 0.9625 0.75485 1.75 1.5424 1.75 1.75 0 0.82304-0.82119 0.29331-2.1276-1.3724zm88-29c-1.2439-1.5861-1.2085-1.6214 0.37756-0.37756 1.6658 1.3064 2.1955 2.1276 1.3724 2.1276-0.20765 0-0.99515-0.7875-1.75-1.75zm-86.715-50.25c0-1.375 0.22698-1.9375 0.50439-1.25s0.27741 1.8125 0 2.5-0.50439 0.125-0.50439-1.25zm15.092-34.689c0.9625-0.25152 2.5375-0.25152 3.5 0 0.9625 0.25153 0.175 0.45733-1.75 0.45733s-2.7125-0.2058-1.75-0.45733zm7.5625 6e-3c0.72187-0.28887 1.5844-0.25335 1.9167 0.0789 0.33229 0.3323-0.25834 0.56864-1.3125 0.52522-1.165-0.048-1.4019-0.28494-0.60417-0.60416zm49.188-16.317c-0.90129-0.58246-1.0246-0.97549-0.30902-0.98469 0.65504-8e-3 1.4691 0.43469 1.809 0.98469 0.7673 1.2415 0.42112 1.2415-1.5 0z" fill="#b9b9b9"/>
   <path d="m304.19 331.5c0.0204-1.65 0.2445-2.2039 0.49804-1.231s0.23687 2.323-0.0371 3c-0.27393 0.67703-0.48137-0.11903-0.46099-1.769zm-57.116-47.083c0.048-1.165 0.28494-1.4019 0.60416-0.60417 0.28887 0.72187 0.25335 1.5844-0.0789 1.9167-0.3323 0.33229-0.56864-0.25834-0.52522-1.3125zm25.734-8.0998c0.72187-0.28887 1.5844-0.25335 1.9167 0.0789 0.33229 0.33229-0.25834 0.56864-1.3125 0.52522-1.165-0.048-1.4019-0.28494-0.60417-0.60416zm-141.65-28.317c0-1.375 0.22698-1.9375 0.50439-1.25s0.27741 1.8125 0 2.5-0.50439 0.125-0.50439-1.25zm57.592-3.6623c0.6875-0.27741 1.8125-0.27741 2.5 0s0.125 0.50439-1.25 0.50439-1.9375-0.22698-1.25-0.50439zm145.33-119.92c0.048-1.165 0.28494-1.4019 0.60416-0.60417 0.28887 0.72187 0.25335 1.5844-0.0789 1.9167-0.33229 0.33229-0.56864-0.25834-0.52522-1.3125zm-80.266-16.1c0.72187-0.28887 1.5844-0.25335 1.9167 0.0789 0.33229 0.3323-0.25834 0.56864-1.3125 0.52522-1.165-0.048-1.4019-0.28494-0.60417-0.60416z" fill="#a3a3a3"/>
   <path d="m269.81 454.32c0.72187-0.28887 1.5844-0.25335 1.9167 0.0789 0.33229 0.33229-0.25834 0.56864-1.3125 0.52522-1.165-0.048-1.4019-0.28494-0.60417-0.60416zm-25.062-7.9792c0.6875-0.27741 1.8125-0.27741 2.5 0s0.125 0.50439-1.25 0.50439-1.9375-0.22698-1.25-0.50439zm23 0c0.6875-0.27741 1.8125-0.27741 2.5 0s0.125 0.50439-1.25 0.50439-1.9375-0.22698-1.25-0.50439zm38.329-25.921c0.048-1.165 0.28494-1.4019 0.60416-0.60417 0.28887 0.72187 0.25335 1.5844-0.0789 1.9167-0.33229 0.33229-0.56864-0.25834-0.52522-1.3125zm-70-5c0.048-1.165 0.28494-1.4019 0.60416-0.60417 0.28887 0.72187 0.25335 1.5844-0.0789 1.9167-0.3323 0.33229-0.56864-0.25834-0.52522-1.3125zm31 0c0.048-1.165 0.28494-1.4019 0.60416-0.60417 0.28887 0.72187 0.25335 1.5844-0.0789 1.9167-0.33229 0.33229-0.56864-0.25834-0.52522-1.3125zm-7.9211-1.4167c0-1.375 0.22698-1.9375 0.50439-1.25s0.27741 1.8125 0 2.5-0.50439 0.125-0.50439-1.25zm-82.345-9.6831c0.72187-0.28887 1.5844-0.25335 1.9167 0.0789 0.33229 0.33229-0.25834 0.56864-1.3125 0.52522-1.165-0.048-1.4019-0.28494-0.60417-0.60416zm40.398-1.9178c-0.70918-0.76953-0.84824-1.3991-0.30901-1.3991 1.0384 0 2.5417 1.9022 1.9486 2.4657-0.19258 0.18294-0.93038-0.297-1.6396-1.0665zm170.79-0.7767c0-0.20765 0.7875-0.99515 1.75-1.75 1.5861-1.2439 1.6214-1.2085 0.37756 0.37756-1.3064 1.6658-2.1276 2.1955-2.1276 1.3724zm-158.23-7.7909c0.5811-0.5811 1.6468-0.85979 2.3683-0.61931 0.74895 0.24965 0.29565 0.70294-1.0566 1.0566-1.6634 0.43497-2.0538 0.30483-1.3117-0.43724zm115.31-22.415c0.048-1.165 0.28494-1.4019 0.60416-0.60417 0.28887 0.72187 0.25335 1.5844-0.0789 1.9167-0.33229 0.33229-0.56864-0.25834-0.52522-1.3125zm-116.27-12.1c0.72187-0.28887 1.5844-0.25335 1.9167 0.0789 0.33229 0.33229-0.25834 0.56864-1.3125 0.52522-1.165-0.048-1.4019-0.28494-0.60417-0.60416zm-58.94-17.067c-1.2439-1.5861-1.2085-1.6214 0.37756-0.37756 0.9625 0.75485 1.75 1.5424 1.75 1.75 0 0.82304-0.82119 0.29331-2.1276-1.3724zm233.32-0.75c0.0204-1.65 0.2445-2.2039 0.49804-1.231s0.23687 2.323-0.0371 3c-0.27393 0.67703-0.48137-0.11903-0.46099-1.769zm-103-12c0.0204-1.65 0.2445-2.2039 0.49804-1.231s0.23687 2.323-0.0371 3c-0.27393 0.67703-0.48137-0.11903-0.46099-1.769zm3.9629-2.5c0-1.375 0.22698-1.9375 0.50439-1.25s0.27741 1.8125 0 2.5-0.50439 0.125-0.50439-1.25zm-62.872-4.5c8e-3 -2.75 0.20172-3.7563 0.43157-2.2362 0.22986 1.5201 0.22371 3.7701-0.0136 5-0.23736 1.2299-0.42542-0.0138-0.41792-2.7638zm31.964-28.189c0.9625-0.25152 2.5375-0.25152 3.5 0 0.9625 0.25153 0.175 0.45733-1.75 0.45733s-2.7125-0.2058-1.75-0.45733zm-26.092-6.3107c0-1.375 0.22698-1.9375 0.50439-1.25s0.27741 1.8125 0 2.5-0.50439 0.125-0.50439-1.25zm3.9211-4.5833c0.048-1.165 0.28494-1.4019 0.60416-0.60417 0.28887 0.72187 0.25335 1.5844-0.0789 1.9167-0.3323 0.33229-0.56864-0.25834-0.52522-1.3125zm38.19-12.11c0.97297-0.25354 2.323-0.23687 3 0.0371 0.67703 0.27393-0.11903 0.48137-1.769 0.46099-1.65-0.0204-2.2039-0.2445-1.231-0.49804zm-39.19-2.8903c0.048-1.165 0.28494-1.4019 0.60416-0.60417 0.28887 0.72187 0.25335 1.5844-0.0789 1.9167-0.3323 0.33229-0.56864-0.25834-0.52522-1.3125zm-24.329-2.079c0.6875-0.27741 1.8125-0.27741 2.5 0s0.125 0.50439-1.25 0.50439-1.9375-0.22698-1.25-0.50439zm226.33-1.921c0.048-1.165 0.28494-1.4019 0.60416-0.60417 0.28887 0.72187 0.25335 1.5844-0.0789 1.9167-0.33229 0.33229-0.56864-0.25834-0.52522-1.3125zm-391.92-1.4167c0-1.375 0.22697-1.9375 0.50439-1.25 0.27741 0.6875 0.27741 1.8125 0 2.5-0.27741 0.6875-0.50439 0.125-0.50439-1.25zm236.92-1.5833c0.048-1.165 0.28494-1.4019 0.60416-0.60417 0.28887 0.72187 0.25335 1.5844-0.0789 1.9167-0.33229 0.33229-0.56864-0.25834-0.52522-1.3125zm-104.27-4.0998c0.72187-0.28887 1.5844-0.25335 1.9167 0.0789 0.33229 0.33229-0.25834 0.56864-1.3125 0.52522-1.165-0.048-1.4019-0.28494-0.60417-0.60416zm252.52-7.8169c4e-3 -3.85 0.18518-5.3025 0.40166-3.2277 0.21647 2.0748 0.21284 5.2248-8e-3 7-0.22091 1.7752-0.39803 0.0777-0.39359-3.7723zm-234.25 1.9167c0.048-1.165 0.28494-1.4019 0.60416-0.60417 0.28887 0.72187 0.25335 1.5844-0.0789 1.9167-0.3323 0.33229-0.56864-0.25834-0.52522-1.3125zm128.19-5.4167c0-2.475 0.19502-3.4875 0.43337-2.25 0.23836 1.2375 0.23836 3.2625 0 4.5-0.23835 1.2375-0.43337 0.225-0.43337-2.25zm-123.02 1.3107c0.9625-0.25152 2.5375-0.25152 3.5 0 0.9625 0.25153 0.175 0.45733-1.75 0.45733s-2.7125-0.2058-1.75-0.45733zm53.209-5.3772c-0.36253-0.58659-0.44468-1.281-0.18255-1.5431 0.26212-0.26213 0.74306 0.21781 1.0688 1.0665 0.67618 1.7621 0.0999 2.0721-0.8862 0.4766zm-209.3-2.9335c0-1.375 0.22697-1.9375 0.50439-1.25 0.27741 0.6875 0.27741 1.8125 0 2.5-0.27741 0.6875-0.50439 0.125-0.50439-1.25zm181.09-1.5c0.0111-2.2 0.21589-2.9822 0.45508-1.7383s0.23011 3.0439-0.0202 4c-0.25029 0.95609-0.446-0.0617-0.4349-2.2617zm27.906-0.5c0-1.375 0.22698-1.9375 0.50439-1.25s0.27741 1.8125 0 2.5-0.50439 0.125-0.50439-1.25zm183-2c0-1.375 0.22698-1.9375 0.50439-1.25s0.27741 1.8125 0 2.5-0.50439 0.125-0.50439-1.25zm-256.4-9.7073c1.2439-0.23919 3.0439-0.23011 4 0.0202 0.95609 0.25029-0.0617 0.446-2.2617 0.4349-2.2-0.0111-2.9822-0.21589-1.7383-0.45508zm124.11-16.043c-1.2439-1.5861-1.2085-1.6214 0.37756-0.37756 1.6658 1.3064 2.1955 2.1276 1.3724 2.1276-0.20765 0-0.99515-0.7875-1.75-1.75zm-45.06-36.933c0.72187-0.28887 1.5844-0.25335 1.9167 0.0789 0.33229 0.33229-0.25834 0.56864-1.3125 0.52522-1.165-0.048-1.4019-0.28494-0.60417-0.60416zm-18.618-18.817c0.0204-1.65 0.2445-2.2039 0.49804-1.231s0.23687 2.323-0.0371 3c-0.27393 0.67703-0.48137-0.11903-0.46099-1.769zm109.88-34.083c0.048-1.165 0.28494-1.4019 0.60416-0.60417 0.28887 0.72187 0.25335 1.5844-0.0789 1.9167-0.33229 0.33229-0.56864-0.25834-0.52522-1.3125zm-108.32-11.124c1.2439-0.23919 3.0439-0.23011 4 0.0202 0.95609 0.25029-0.0617 0.446-2.2617 0.4349-2.2-0.0111-2.9822-0.21589-1.7383-0.45508zm-137.76-3.6703c0-0.20765 0.7875-0.99515 1.75-1.75 1.5861-1.2439 1.6214-1.2085 0.37756 0.37756-1.3064 1.6658-2.1276 2.1955-2.1276 1.3724zm192.16-9.6224c0-1.375 0.22698-1.9375 0.50439-1.25s0.27741 1.8125 0 2.5-0.50439 0.125-0.50439-1.25zm-84-8c0-1.375 0.22698-1.9375 0.50439-1.25s0.27741 1.8125 0 2.5-0.50439 0.125-0.50439-1.25zm27.094-6.5c0.0111-2.2 0.21589-2.9823 0.45508-1.7383 0.23919 1.2439 0.23011 3.0439-0.0202 4-0.25027 0.95609-0.44598-0.061659-0.43488-2.2617zm9.4978-3.1623c0.6875-0.27741 1.8125-0.27741 2.5 0 0.6875 0.27741 0.125 0.50439-1.25 0.50439s-1.9375-0.22697-1.25-0.50439z" fill="#8c8c8c"/>
   <path d="m391 398.62c0-0.20765 0.7875-0.99515 1.75-1.75 1.5861-1.2439 1.6214-1.2085 0.37756 0.37756-1.3064 1.6658-2.1276 2.1955-2.1276 1.3724zm-164.19-44.306c0.72187-0.28887 1.5844-0.25335 1.9167 0.0789 0.33229 0.33229-0.25834 0.56864-1.3125 0.52522-1.165-0.048-1.4019-0.28494-0.60417-0.60416zm77.345-31.317c0-1.375 0.22698-1.9375 0.50439-1.25s0.27741 1.8125 0 2.5-0.50439 0.125-0.50439-1.25zm-56.963-30.5c0.0204-1.65 0.2445-2.2039 0.49804-1.231s0.23687 2.323-0.0371 3c-0.27393 0.67703-0.48137-0.11903-0.46099-1.769zm-30.445-4.1623c0.6875-0.27741 1.8125-0.27741 2.5 0s0.125 0.50439-1.25 0.50439-1.9375-0.22698-1.25-0.50439zm55-8c0.6875-0.27741 1.8125-0.27741 2.5 0s0.125 0.50439-1.25 0.50439-1.9375-0.22698-1.25-0.50439zm-64.592-28.338c0-1.375 0.22698-1.9375 0.50439-1.25s0.27741 1.8125 0 2.5-0.50439 0.125-0.50439-1.25zm73.592-4.6623c0.6875-0.27741 1.8125-0.27741 2.5 0s0.125 0.50439-1.25 0.50439-1.9375-0.22698-1.25-0.50439zm67.062-8.0208c0.72187-0.28887 1.5844-0.25335 1.9167 0.0789 0.33229 0.33229-0.25834 0.56864-1.3125 0.52522-1.165-0.048-1.4019-0.28494-0.60417-0.60416zm-140.94-40.067c-1.2439-1.5861-1.2085-1.6214 0.37756-0.37756 0.9625 0.75485 1.75 1.5424 1.75 1.75 0 0.82304-0.82119 0.29331-2.1276-1.3724zm32-98c-1.2439-1.5861-1.2085-1.6214 0.37756-0.37756 1.6658 1.3064 2.1955 2.1276 1.3724 2.1276-0.20765 0-0.99515-0.7875-1.75-1.75zm16.207-15.833c0.048-1.1649 0.28494-1.4019 0.60416-0.60417 0.28887 0.72188 0.25335 1.5844-0.0789 1.9167-0.3323 0.33229-0.56864-0.25833-0.52522-1.3125zm8-2c0.048-1.1649 0.28494-1.4019 0.60416-0.60417 0.28887 0.72188 0.25335 1.5844-0.0789 1.9167-0.33229 0.33229-0.56864-0.25833-0.52522-1.3125zm10.734-10.1c0.72187-0.28887 1.5844-0.25334 1.9167 0.07895 0.33229 0.33229-0.25834 0.56864-1.3125 0.52522-1.165-0.04798-1.4019-0.28494-0.60417-0.60417zm-26.543-25.01c0.97297-0.25354 2.323-0.23687 3 0.03705 0.67703 0.27392-0.11903 0.48137-1.769 0.46099s-2.2039-0.2445-1.231-0.49804zm17.543 0.0099c0.72187-0.28887 1.5844-0.25334 1.9167 0.07895 0.33229 0.33229-0.25834 0.56864-1.3125 0.52522-1.165-0.04798-1.4019-0.28494-0.60417-0.60417z" fill="#767676"/>
   <path d="m306.08 417.42c0.048-1.165 0.28494-1.4019 0.60416-0.60417 0.28887 0.72187 0.25335 1.5844-0.0789 1.9167-0.33229 0.33229-0.56864-0.25834-0.52522-1.3125zm-172.58-54.417c0.99549-1.1 2.035-2 2.31-2s-0.31449 0.9-1.31 2-2.035 2-2.31 2 0.31449-0.9 1.31-2zm107.31-9.6831c0.72187-0.28887 1.5844-0.25335 1.9167 0.0789 0.33229 0.33229-0.25834 0.56864-1.3125 0.52522-1.165-0.048-1.4019-0.28494-0.60417-0.60416zm153.06-15.067c-1.2439-1.5861-1.2085-1.6214 0.37756-0.37756 1.6658 1.3064 2.1955 2.1276 1.3724 2.1276-0.20765 0-0.99515-0.7875-1.75-1.75zm-208.79-34.833c0.048-1.165 0.28494-1.4019 0.60416-0.60417 0.28887 0.72187 0.25335 1.5844-0.0789 1.9167-0.3323 0.33229-0.56864-0.25834-0.52522-1.3125zm62-7c0.048-1.165 0.28494-1.4019 0.60416-0.60417 0.28887 0.72187 0.25335 1.5844-0.0789 1.9167-0.3323 0.33229-0.56864-0.25834-0.52522-1.3125zm-45.329-19.079c0.6875-0.27741 1.8125-0.27741 2.5 0s0.125 0.50439-1.25 0.50439-1.9375-0.22698-1.25-0.50439zm-134.59-28.338c0-1.375 0.22697-1.9375 0.50439-1.25 0.27741 0.6875 0.27741 1.8125 0 2.5-0.27741 0.6875-0.50439 0.125-0.50439-1.25zm238.65-26.683c0.72187-0.28887 1.5844-0.25335 1.9167 0.0789 0.33229 0.33229-0.25834 0.56864-1.3125 0.52522-1.165-0.048-1.4019-0.28494-0.60417-0.60416zm-65.655-64.317c0-1.375 0.22698-1.9375 0.50439-1.25s0.27741 1.8125 0 2.5-0.50439 0.125-0.50439-1.25zm-4.7529-60.25c-1.905-2.25-1.905-2.25 0.34501-0.34501 2.1144 1.7902 2.7052 2.595 1.905 2.595-0.18976 0-1.2023-1.0125-2.25-2.25zm35.408-24.433c0.72187-0.28887 1.5844-0.25334 1.9167 0.07895 0.33229 0.33229-0.25834 0.56864-1.3125 0.52522-1.165-0.04798-1.4019-0.28494-0.60417-0.60417zm-17-17c0.72187-0.28887 1.5844-0.25334 1.9167 0.07895 0.33229 0.33229-0.25834 0.56864-1.3125 0.52522-1.165-0.04798-1.4019-0.28494-0.60417-0.60417zm-1.5435-8.0099c0.97297-0.25354 2.323-0.23687 3 0.03705 0.67703 0.27392-0.11903 0.48137-1.769 0.46099s-2.2039-0.2445-1.231-0.49804zm8.481 0.03071c0.6875-0.27741 1.8125-0.27741 2.5 0 0.6875 0.27741 0.125 0.50439-1.25 0.50439s-1.9375-0.22697-1.25-0.50439z" fill="#606060"/>
   <path d="m119.45 396.75c-3.953-4.25-3.953-4.25 0.29705-0.29705 3.9525 3.6762 4.7095 4.547 3.953 4.547-0.16338 0-2.0759-1.9125-4.25-4.25zm39.626-5.3333c0.048-1.165 0.28494-1.4019 0.60416-0.60417 0.28887 0.72187 0.25335 1.5844-0.0789 1.9167-0.3323 0.33229-0.56864-0.25834-0.52522-1.3125zm204.79-9.1667c-1.2439-1.5861-1.2085-1.6214 0.37756-0.37756 1.6658 1.3064 2.1955 2.1276 1.3724 2.1276-0.20765 0-0.99515-0.7875-1.75-1.75zm-191.87-0.62756c0-0.20765 0.7875-0.99515 1.75-1.75 1.5861-1.2439 1.6214-1.2085 0.37756 0.37756-1.3064 1.6658-2.1276 2.1955-2.1276 1.3724zm170.5-40.622c2.1482-2.2 4.1309-4 4.4059-4s-1.2577 1.8-3.4059 4-4.1309 4-4.4059 4 1.2577-1.8 3.4059-4zm-135.5-37.378c0-0.20765 0.7875-0.99515 1.75-1.75 1.5861-1.2439 1.6214-1.2085 0.37756 0.37756-1.3064 1.6658-2.1276 2.1955-2.1276 1.3724zm130.4-4.8724c-1.905-2.25-1.905-2.25 0.34501-0.34501 2.1144 1.7902 2.7052 2.595 1.905 2.595-0.18976 0-1.2023-1.0125-2.25-2.25zm-15.405-12.128c0-0.20765 0.7875-0.99515 1.75-1.75 1.5861-1.2439 1.6214-1.2085 0.37756 0.37756-1.3064 1.6658-2.1276 2.1955-2.1276 1.3724zm-261.84-29.622c0-1.375 0.22697-1.9375 0.50439-1.25 0.27741 0.6875 0.27741 1.8125 0 2.5-0.27741 0.6875-0.50439 0.125-0.50439-1.25zm7.0741-3c0-1.925 0.2058-2.7125 0.45732-1.75 0.25153 0.9625 0.25153 2.5375 0 3.5-0.25153 0.9625-0.45732 0.175-0.45732-1.75zm189.17-13.25c-1.905-2.25-1.905-2.25 0.34501-0.34501 2.1144 1.7902 2.7052 2.595 1.905 2.595-0.18976 0-1.2023-1.0125-2.25-2.25zm8.7529-1.75c0-1.375 0.22698-1.9375 0.50439-1.25s0.27741 1.8125 0 2.5-0.50439 0.125-0.50439-1.25zm88.111 0.30701c0.97297-0.25354 2.323-0.23687 3 0.0371 0.67703 0.27393-0.11903 0.48137-1.769 0.46099-1.65-0.0204-2.2039-0.2445-1.231-0.49804zm-143.27-8.6846c0-0.20765 0.7875-0.99515 1.75-1.75 1.5861-1.2439 1.6214-1.2085 0.37756 0.37756-1.3064 1.6658-2.1276 2.1955-2.1276 1.3724zm-22.128-20.372c-1.2439-1.5861-1.2085-1.6214 0.37756-0.37756 0.9625 0.75485 1.75 1.5424 1.75 1.75 0 0.82304-0.82119 0.29331-2.1276-1.3724zm92.128-17.628c0-0.20765 0.7875-0.99515 1.75-1.75 1.5861-1.2439 1.6214-1.2085 0.37756 0.37756-1.3064 1.6658-2.1276 2.1955-2.1276 1.3724zm-86.188-4.3056c0.72187-0.28887 1.5844-0.25335 1.9167 0.0789 0.33229 0.33229-0.25834 0.56864-1.3125 0.52522-1.165-0.048-1.4019-0.28494-0.60417-0.60416zm149.13-30.067c-3.4462-3.75-3.4462-3.75 0.30383-0.30383 2.0625 1.8954 3.75 3.5829 3.75 3.75 0 0.76362-0.84622 0.0443-4.0538-3.4462zm-172.95-0.75c1.8658-1.925 3.6173-3.5 3.8923-3.5s-1.0266 1.575-2.8923 3.5-3.6173 3.5-3.8923 3.5 1.0266-1.575 2.8923-3.5zm-32.128-29.25c-1.2439-1.5861-1.2085-1.6214 0.37756-0.37756 0.9625 0.75485 1.75 1.5424 1.75 1.75 0 0.82304-0.82119 0.29331-2.1276-1.3724zm255.58-23.5c-3.953-4.25-3.953-4.25 0.29705-0.29705 2.3375 2.1741 4.25 4.0866 4.25 4.25 0 0.75658-0.87085-4.9e-4 -4.547-3.953zm-164.53-2.5c-2.4243-2.75-2.4243-2.75 0.32569-0.32569 2.5703 2.2659 3.2086 3.0757 2.4243 3.0757-0.17912 0-1.4166-1.2375-2.75-2.75zm27.826-53.912c0.6875-0.27741 1.8125-0.27741 2.5 0 0.6875 0.27741 0.125 0.50439-1.25 0.50439s-1.9375-0.22697-1.25-0.50439z" fill="#494949"/>
   <path d="m245 454.36c-61.907-4.4825-116.79-37.34-151.48-90.681-27.7-42.598-38.691-96.947-29.967-148.18 11.952-70.196 59.43-129.33 123.79-154.19 12.158-4.6956 32.991-9.8566 45.775-11.34 15.805-1.8344 47.353-0.8115 61.377 1.99 30.402 6.0733 61.314 20.641 85 40.057 9.3873 7.6952 25.786 24.727 32.797 34.064 40.081 53.376 51.06 125.91 29.049 191.91-20.419 61.224-71.175 111.4-130.39 128.9-19.237 5.6855-47.07 8.8381-65.955 7.4707zm35.136-8.8187c27.313-3.6362 52.495-12.813 74.864-27.281 66.171-42.801 100.96-122.39 87.948-201.2-7.0073-42.433-25.75-78.236-56.625-108.17-48.677-47.186-117.02-63.732-183.59-44.443-26.008 7.5367-53.345 23.756-75.037 44.518-54.317 51.99-74.036 132.25-50.251 204.53 19.691 59.839 66.282 106.71 124.05 124.79 9.2842 2.9064 25.165 6.4092 34.5 7.6099 10.475 1.3472 32.651 1.1636 44.136-0.36542zm-24.136-17.495c0-0.52267 0.74641-1.368 1.6587-1.8786 1.35-0.75552 1.7225-2.9512 2.0017-11.8 0.34301-10.871 0.34301-10.871-5.313 0.87856-3.1108 6.4625-6.2616 11.75-7.0017 11.75-0.74014 0-1.3457-0.5036-1.3457-1.1191 0-1.8804-7.4552-21.878-8.1567-21.88-0.36117-6.9e-4 -0.97842 4.2903-1.3717 9.5356-0.60542 8.0751-0.46612 9.8118 0.90885 11.331 2.1523 2.3783 1.1783 3.132-4.0472 3.132-3.0719 0-4.3333-0.41239-4.3333-1.4167 0-0.77916 0.5192-1.5897 1.1538-1.8013 1.4764-0.49213 2.6799-8.9824 2.7732-19.563 0.0572-6.4866-0.25209-8.4061-1.427-8.857-2.9085-1.1161-1.4499-2.3615 2.75-2.348 7.7643 0.0249 8.1715 0.37752 12.204 10.567 2.0504 5.1805 3.9381 9.4191 4.1948 9.4191 0.25671 0 2.4509-4.275 4.876-9.5 4.4092-9.5 4.4092-9.5 9.7753-9.5 6.2798 0 7.5844 0.82384 4.7228 2.9824-1.8392 1.3873-2.1356 2.9988-2.6924 14.638-0.44783 9.3626-0.29959 13.281 0.52168 13.788 2.672 1.6514 0.73079 2.591-5.3527 2.591-3.575 0-6.5-0.42764-6.5-0.95031zm26-1.8497c0-0.44 0.44533-1.2453 0.98962-1.7896 1.4549-1.4549-2.7196-24.246-5.0495-27.568-1.8641-2.6581-1.8641-2.6581 5.8479-4.3236 4.2416-0.91602 9.1808-2.0478 10.976-2.5152 2.9802-0.77579 3.3968-0.59291 4.7909 2.1029 1.9587 3.7876 1.0452 5.3332-1.9804 3.3507-1.6638-1.0902-3.5173-1.3297-6.5442-0.84566-4.0526 0.64803-4.1989 0.79556-3.6266 3.6571 0.328 1.64 0.59636 3.8255 0.59636 4.8568 0 2.4019 4.0696 2.5307 7.5664 0.23954 2.9774-1.9508 3.3449-1.6861 4.0975 2.9518 0.57838 3.5642 0.57838 3.5642-5.2101 2.9667-4.9339-0.50923-5.7018-0.37166-5.2016 0.9319 0.32277 0.84113 0.89998 3.6174 1.2827 6.1695s1.0086 4.8334 1.3908 5.0696c1.5755 0.97369 9.2652-1.8814 10.997-4.0831 2.5558-3.2492 3.0772-2.997 3.0772 1.4887 0 3.8598 0 3.8598-10.75 6.0008-11.891 2.3682-13.25 2.5056-13.25 1.3394zm-78.806-5.728c-11.673-4.2943-11.786-4.3684-9.3155-6.0991 2.556-1.7903 9.5468-23.544 8.6783-27.004-0.32697-1.3027-0.30945-2.3686 0.03892-2.3686 0.6956 0 20.712 6.1928 21.219 6.5648 0.17297 0.12694-5e-3 1.9353-0.39611 4.0186-0.7106 3.7878-0.7106 3.7878-2.8145 1.1653-2.0062-2.5007-6.2718-4.7488-9.0107-4.7488-0.70214 0-1.8325 1.8554-2.5119 4.123-1.5344 5.1215-0.54007 6.3602 4.9307 6.142 4.3594-0.17384 4.8556 0.7367 2.8275 5.188-1.2977 2.8482-2.3523 3.2036-3.5398 1.193-0.85934-1.455-4.549-3.646-6.14-3.646-0.95107 0-4.1597 8.1613-4.1597 10.58 0 2.685 10.498 4.5216 12.783 2.2364 2.0002-2.0002 2.4523-0.17298 0.76473 3.0904-0.87968 1.7011-2.1504 3.0694-2.8237 3.0407-0.67338-0.0287-5.4122-1.5928-10.531-3.4758zm116.36-4.222c0.42253-0.9625 0.74548-2.7272 0.71766-3.9215-0.0744-3.1924-9.9462-20.927-12.975-23.31-3.0237-2.3784-3.0482-2.3326 2.5888-4.8563 4.3121-1.9306 4.3121-1.9306 15.727 3.4534 6.2779 2.9612 11.64 5.384 11.916 5.384 0.63753 0-5.019-10.921-6.8627-13.25-0.76202-0.9625-2.1234-1.75-3.0252-1.75-2.6906 0-1.8721-1.6654 1.9174-3.9012 4.6892-2.7667 5.4428-2.6548 5.4428 0.80759 0 1.5985 2.7 8.3176 6 14.931 3.3 6.6137 6 12.458 6 12.987 0 2.5386-3.8403 1.5031-16.497-4.4482-7.5615-3.5556-13.946-6.2666-14.188-6.0246-1.022 1.022 8.8534 18.775 10.856 19.516 1.9057 0.70497 1.6709 1.0348-2.4603 3.4559-5.3586 3.1403-6.1945 3.2905-5.1567 0.9265zm-148.55-8.843c-10.008-4.3398-13.889-14.838-9.0164-24.389 6.0863-11.93 22.39-13.251 30.606-2.4801 2.7628 3.6222 2.4837 5.2691-1.5042 8.8782-2.088 1.8896-2.0926 1.8855-2.0926-1.8381 0-7.0386-7.9052-11.84-14.066-8.543-3.2357 1.7317-7.9145 10.957-7.9251 15.626-8e-3 3.425 0.53493 4.6191 3.0677 6.7503 3.8736 3.2595 7.3723 4.1605 10.544 2.7155 3.5003-1.5948 3.614-1.4815 1.8792 1.8731-1.2464 2.4104-2.1851 2.9923-4.7757 2.9609-1.7734-0.0215-4.7961-0.72076-6.7172-1.5538zm195.37-20.937c0.37307-0.97221-1.3201-3.6188-4.643-7.2576-2.8766-3.15-6.8675-7.6588-8.8686-10.019-3.6384-4.292-3.6384-4.292-5.823-1.5147-1.3201 1.6782-2.0109 3.686-1.7457 5.0735 0.24141 1.2629 0.0562 2.5327-0.41156 2.8218-0.99127 0.61264-5.0269-5.5745-4.6418-7.1165 0.33784-1.3527 18.343-17.457 19.517-17.457 1.0587 0 5.2433 4.2952 5.2433 5.3818 0 0.41411-0.93317 0.45676-2.0737 0.0948-2.0253-0.6428-7.937 1.1457-7.9154 2.3947 6e-3 0.34577 3.8156 4.9829 8.4658 10.305 5.2297 5.985 9.3254 9.7996 10.737 10 2.1574 0.30634 2.0564 0.55618-1.8487 4.574-4.1401 4.2596-7.0976 5.6021-5.9916 2.7198zm-123.51-8.439c-64.159-8.153-113.2-67.168-110.56-133.03 1.3082-32.543 13.158-60.634 35.517-84.198 24.043-25.339 54.947-38.812 88.996-38.798 25.499 0.0106 51.91 8.8451 72.241 24.165 9.5664 7.2085 24.019 22.292 30.064 31.377 30.238 45.443 28.562 104.78-4.2222 149.51-5.9015 8.0514-21.157 22.916-29.905 29.138-8.7755 6.242-20.199 12.3-28.975 15.367-16.11 5.6286-38.42 8.3447-53.158 6.4719zm63.067-15.53c2.2545-1.1575 2.2913-1.2912 0.5-1.8139-5.2637-1.5358-22.014-4.6653-30.689-5.7339-9.1168-1.123-9.9447-1.4172-12.647-4.4955-4.1762-4.7564-6.8648-12.873-8.5156-25.707-2.0908-16.255-2.9804-29.752-1.9605-29.744 0.48344 4e-3 4.62 0.90385 9.1923 2 18.188 4.3603 28.587 0.80872 28.587-9.7634 0-6.8225-9.5064-12.016-20.022-10.939-5.4372 0.55693-12.409 3.5753-16.128 6.9827-2.25 2.0615-2.25 2.0615-2.25-1.03 0-4.1053 2.6865-10.166 8.4642-19.097 4.7486-7.3396 4.7486-7.3396 6.5014-4.4574 3.8407 6.3156 12.81 11.756 21.298 12.92 10.711 1.468 17.141-7.3778 11.729-16.135-3.6943-5.9775-15.984-9.4387-25.77-7.2576-3.277 0.7304-3.277 0.7304-0.5-2.824 2.7189-3.4801 2.892-3.5423 8.277-2.9714 16.222 1.7195 24.628 1.8086 27.561 0.29197 13.255-6.8545 8.349-22.304-6.3956-20.139-2.5662 0.37671-5.6782 1.0625-6.9157 1.5239-2.672 0.99628-2.6319 1.2224-0.73553-4.1526 1.679-4.7588 1.2484-7.3737-1.755-10.657-5.2152-5.7015-14.882-2.6332-19.528 6.1981-1.9363 3.6809-2.0763 13.515-0.2694 18.93 1.2394 3.7141 1.1803 4.0362-1.0755 5.8662-2.3869 1.9363-2.3869 1.9363-3.1464-4.807-1.4356-12.747-6.655-19.545-13.801-17.976-3.4838 0.76518-6.9392 4.8253-6.9392 8.1536 0 5.5351 5.5279 14.392 11.536 18.483 1.8978 1.2923 3.4536 3.0626 3.4573 3.9339 4e-3 0.87132-1.7018 4.0234-3.7901 7.0045s-4.9517 7.3567-6.363 9.7234c-2.5661 4.3031-2.5661 4.3031-4.7142-4.7354-1.1815-4.9712-2.4322-12.399-2.7794-16.507-0.629-7.441 1.2133-31.108 2.7437-35.247 1.1153-3.0165 8.0636-6.8372 16.556-9.1038 10.472-2.7948 16.118-6.4315 18.561-11.955 2.555-5.776 1.5793-9.8177-3.1374-12.996-9.0344-6.0883-23.239 1.3968-30.57 16.109-2.4994 5.0156-2.4994 5.0156-2.4994-0.75052 0-4.7972 0.51456-6.5141 3.0621-10.217 8.3564-12.146 11.872-25.532 8.5459-32.541-4.0463-8.527-16.446-9.4251-21.173-1.5336-2.0729 3.461-2.6727 15.266-1.0913 21.48 0.84371 3.3149 0.84371 3.3149-3.8832-0.29319-6.5727-5.017-9.8196-6.5401-15.336-7.1933-6.6198-0.78402-10.668 1.4145-12.235 6.6445-3.2331 10.791 7.8589 21.197 25.61 24.026 11.258 1.7943 11.219 1.7614 11.962 10.188 0.41132 4.6648-8e-3 13.163-1.1588 23.467-1.8036 16.154-1.8036 16.154-7.7194 10.639-5.9158-5.5148-5.9158-5.5148-2.2127-8.6539 5.3522-4.537 7.6143-8.4893 7.622-13.316 5e-3 -3.3263-0.53023-4.5997-2.6283-6.25-5.0286-3.9555-10.437-1.675-13.82 5.8275-2.0062 4.4489-2.9701 4.5352-4.012 0.35936-0.37868-1.5177-1.8108-5.0094-3.1825-7.7594-5.6891-11.406-16.147-17.689-25.813-15.509-5.3922 1.2161-7.8105 3.957-7.8105 8.8521 0 8.5731 7.7959 16.687 20.474 21.31 3.1895 1.1629 5.799 2.1985 5.799 2.3012 0 0.1027-3.7125-7e-3 -8.25-0.24317-10.326-0.53808-16.12 0.95812-20.44 5.278-8.6256 8.6256 0.18214 20.457 13.44 18.053 6.2788-1.1385 13.921-5.1546 19.194-10.087 3.9976-3.7393 5.4944-4.5623 7.4192-4.0792 3.5528 0.89168 12.347 7.8103 16.842 13.249 6.4168 7.7652 6.431 8.6117 0.0803 4.7875-6.9566-4.1891-11.078-5.4001-18.401-5.4074-16.577-0.0165-14.897 18.479 2.0898 23.001 5.2368 1.3941 12.192 0.6816 19.148-1.9616 2.6826-1.0193 5.1113-1.4751 5.397-1.0128s0.97193 11.508 1.5249 24.545c1.5082 35.558 4.0763 52.428 9.4642 62.172 2.35 4.25 2.35 4.25-3.3296 4.239-3.1238-6e-3 -7.3192-0.28215-9.3231-0.61356-3.6435-0.60256-3.6435-0.60256-1.8186-4.739 3.0199-6.8452 4.2636-16.93 3.7042-30.039-0.43239-10.133-1.1098-14.047-4.1704-24.098-6.4797-21.279-6.5687-21.5-8.652-21.5-2.3486 0-2.4643 2.2049-0.41963 8 0.825 2.3383 1.5 4.6499 1.5 5.1369 0 2.1274-14.488-9.9197-19.786-16.452-8.5756-10.574-16.673-14.253-25.901-11.769-11.473 3.0894-12.699 15.062-2.1608 21.095 4.0387 2.3121 5.3085 2.4902 17.848 2.5034 7.8758 8e-3 14.274 0.46641 15.357 1.0998 1.4839 0.86741 0.24798 1.1959-6.1488 1.6344-13.986 0.95865-24.511 7.354-27.273 16.573-1.5149 5.0561 0.52908 9.2224 5.7368 11.694 7.5264 3.5715 16.374-1.1382 26.575-14.146 6.5361-8.3347 9.4193-9.7465 13.59-6.6545 1.4646 1.0858 3.6446 3.7075 4.8444 5.8258 6.2428 11.023 5.6162 42.781-1.0392 52.667-2.1055 3.1276-2.6188 3.3296-10.18 4.0068-10.853 0.97198-24.182 2.742-26.052 3.4596-1.0692 0.41027-0.22214 1.1869 2.7753 2.5446 4.0709 1.8439 4.934 1.8788 15.314 0.61842 6.7374-0.81806 19.913-1.2719 34-1.1712 19.875 0.14205 24.699 0.49641 35.5 2.6078 12.627 2.4682 14.528 2.4912 18.934 0.22887zm-112.6-54.5c-4.8282-1.947-3.7581-7.8546 2.3357-12.894 4.5024-3.7235 11.749-6.107 18.566-6.107 4.8769 0 4.8769 0 0.4229 5.75-5.9184 7.6404-9.4003 10.825-13.881 12.697-4.1833 1.7475-4.4385 1.7665-7.4442 0.55442zm67.884-16.193c-8.5034-2.3797-8.4131-3.0581 1.0361-7.7799 4.2674-2.1325 7.5083-3.0288 10.951-3.0288 7.6162 0 13.6 3.8734 12.302 7.963-1.6492 5.1962-11.688 6.3723-24.29 2.8457zm-70.192-16.392c-4.7789-2.0728-7.0298-4.3141-7.0298-7.0001 0-4.6434 6.2084-7.3503 13.654-5.9535 4.7141 0.88437 16.54 12.168 14.263 13.609-2.3298 1.4747-17.041 1.0129-20.888-0.65563zm92.356-10.034c-4.688-1.6626-12.385-7.8413-12.385-9.9417 0-2.5406 8.4315-3.6295 16.221-2.0947 5.2118 1.027 9.7794 5.0938 9.7794 8.7072 0 4.9145-5.4125 6.238-13.615 3.3291zm-62.885-4.5866c-5.0058-1.745-8.6367-5.8055-8.2961-9.2776 0.27934-2.8478 0.56784-3.0361 5.0949-3.3255 2.6393-0.16873 7.3379 0.43135 10.441 1.3335 6.2842 1.8269 14.901 7.2327 13.6 8.5317-1.1707 1.1685-12.221 3.9583-15.3 3.8626-1.3969-0.0434-3.8899-0.54956-5.5399-1.1248zm39.711-23.697c-6.3419-6.1693-8.0626-12.038-4.1444-14.135 4.7898-2.5634 9.4362 4.8214 8.7592 13.921-0.32626 4.3856-0.32626 4.3856-4.6148 0.2137zm-76.018 1.3804c-3.1957-2.3167-2.6552-7.0672 1.1237-9.8765 3.4248-2.546 15.853-3.4421 22.588-1.6287 4.3334 1.1668 4.3334 1.1668 1.6412 3.9768-6.753 7.0486-20.417 11.106-25.353 7.5283zm106.06 0.28599c-5.0618-0.72815-7.25-1.4666-7.25-2.4468 0-3.2519 20.125-10.257 25.553-8.895 3.5844 0.89963 4.9613 4.1423 3.0181 7.1079-3.1281 4.774-9.1932 5.9784-21.321 4.2338zm-12.854-9.3252c-1.2323-4.91 0.20286-11.412 3.2123-14.553 7.4125-7.737 14.072-1.5784 8.334 7.7066-1.8632 3.0146-8.8734 9.4061-10.317 9.4061-0.32288 0-0.87612-1.1518-1.2294-2.5595zm-51.954-8.1905c1.347-5.6211 5.014-11.744 7.2219-12.058 5.36-0.76358 2.9459 7.7632-3.5598 12.573-3.9149 2.8944-4.4607 2.8177-3.6622-0.51475zm-17.442-5.6962c-9.9997-4.1212-13.001-5.8359-16.128-9.2146-4.9686-5.3685-6.0051-9.0635-3.3008-11.768 3.6614-3.6614 13.507-0.56959 19.558 6.1414 3.4871 3.8679 8.2741 14.338 7.6644 16.764-0.19482 0.7751-2.8178 0.12801-7.7936-1.9227zm45.256-19.858c4.4378-12.73 19.699-22.741 25.628-16.812 2.8858 2.8858 2.6692 4.5419-1.137 8.6952-2.6269 2.8664-5.3922 4.2622-14.366 7.2512-11.113 3.7014-11.113 3.7014-10.125 0.86563zm-20.896-10.704c-14.23-3.2155-22.36-9.1023-22.36-16.191 0-3.7076 3.8028-6.2224 8.0115-5.298 8.0039 1.758 22.559 14.517 24.24 21.247 0.66275 2.6549 0.77478 2.6521-9.8913 0.24201zm10.792-14.48c-2.5357-7.7243-2.8575-18.246-0.68638-22.444 1.679-3.2468 5.2634-4.5014 8.9047-3.117 6.1372 2.3334 6.155 11.845 0.0445 23.774-2.1528 4.2029-4.4086 7.799-5.0128 7.9913s-2.0667-2.5996-3.25-6.2042zm61.204 154.55c-0.14409-17.145-0.86203-20.954-3.4598-18.356-1.2964 1.2964-0.88807 33.01 0.45188 35.098 0.45988 0.71653 1.3574 1.1242 1.9945 0.90592 0.82538-0.28279 1.1167-5.3557 1.0134-17.648zm31.196 10.666c0.26863-0.70005-3.0525-8.9126-7.3802-18.25-6.2777-13.545-8.3036-17.042-10.02-17.297-2.7235-0.40457-2.7462 1.2123-0.0942 6.7013 2.32 4.8018 7.9768 16.99 11.542 24.868 2.2834 5.0458 4.8771 6.7789 5.9522 3.9772zm20.016-23.835c0.87634-1.418-21.566-24.032-23.484-23.664-3.2402 0.62231-1.6056 3.0728 9.1025 13.646 11.033 10.894 12.995 12.261 14.381 10.018zm-52.054-13.896c25.186-8.6653 40.689-36.49 35.097-62.996-3.6174-17.148-14.399-31.622-28.637-38.446-8.3631-4.0079-17.642-6.2848-19.212-4.7144-1.9959 1.9959 0.10836 3.8124 5.8886 5.0833 17.69 3.8895 32.846 18.768 36.792 36.118 6.5208 28.67-9.141 54.757-37.191 61.947-3.1852 0.8165-4.25 1.5809-4.25 3.0509 0 2.6112 3.84 2.5969 11.513-0.0429zm63.295-11.247c0.40238-2.074-23.026-16.262-25.369-15.363-0.88289 0.3388-1.4269 1.1783-1.2089 1.8655 0.50464 1.5909 23.895 15.874 25.254 15.422 0.55868-0.18597 1.1542-1.0518 1.3235-1.924zm5.6923-25.216c0-1.649-1.9303-2.4365-12.842-5.2388-7.0628-1.8139-13.275-3.03-13.805-2.7023-0.5301 0.32762-0.82641 1.2994-0.65846 2.1594 0.21109 1.081 4.0104 2.5668 12.305 4.8126 13.44 3.6386 15 3.7394 15 0.9691zm-4.8491-22.532c4.6824 0 5.3491-0.24926 5.3491-2 0-1.9004-0.66667-2-13.393-2-10.456 0-13.509 0.30221-13.922 1.3781-1.1143 2.9039 1.5696 3.8423 9.2158 3.2221 4.0705-0.33015 9.808-0.60028 12.75-0.60028zm-12.216-22.104c9.2434-3.2803 11.565-4.4846 11.565-6 0-2.7946-2.5283-2.4189-14.965 2.2237-10.045 3.7498-12.278 5.3039-10.369 7.2136 1.0351 1.0351 1.4753 0.92522 13.769-3.4374zm-9.4353-20.654c9.1294-7.5175 11.215-10.386 8-11.001-1.3735-0.26266-20.589 14.533-22.193 17.089-0.38104 0.60704-0.22128 1.6718 0.35501 2.3662 1.3615 1.6406 2.2039 1.1259 13.838-8.454zm-15.715-15.268c7.4934-11.906 8.615-14.841 6.0035-15.711-1.1307-0.37646-4.3926 4.2491-13.718 19.452-3.6393 5.9335-4.2333 9.9994-1.3205 9.0398 0.68721-0.2264 4.7528-5.978 9.0346-12.781zm-15.894-11.667c3.55-18.327 3.6025-21.286 0.35557-20.04-1.3112 0.50317-6.0294 21.999-7.4591 33.983-0.51168 4.2892-0.37024 4.75 1.4579 4.75 1.8314 0 2.37-1.7833 5.6456-18.694zm-190.72 197.21c-4.0817-4.8831-4.333-5.5122-2.2014-5.5122 0.80892 0 3.4768-1.414 5.9287-3.1422 3.9589-2.7905 4.8145-4.1313 7.6443-11.979 1.7525-4.8602 2.9406-9.4772 2.6402-10.26-1.2978-3.3821 0.86851-2.1239 4.932 2.8645 4.661 5.7219 5.2982 7.0816 2.8848 6.1554-1.0562-0.40532-2.258 0.92209-4.0672 4.4924-1.4124 2.7873-2.3371 5.2987-2.0548 5.581 1.0094 1.0094 10.655-1.9471 11.625-3.5636 0.87554-1.4578 1.2796-1.324 3.4929 1.1572 2.9213 3.2748 3.2331 5.0529 0.75284 4.2924-0.9625-0.29512-5.4903 0.28318-10.062 1.2851-7.3329 1.6071-8.8295 2.3297-12.707 6.1348-2.4171 2.3722-4.182 4.6575-3.9218 5.0784 0.26013 0.42089 0.0931 1-0.3712 1.287-0.46429 0.28694-2.4966-1.4552-4.5163-3.8714zm253.83-7.3929c-10.296-4.728-13.076-15.494-6.5201-25.255 5.5893-8.3223 14.769-11.074 22.976-6.8867 6.0194 3.0708 8.5444 7.3625 8.5444 14.523 0 5.2348-0.43508 6.6044-3.4117 10.739-3.6892 5.1246-9.8108 8.7752-14.654 8.739-1.6139-0.0121-4.7343-0.84853-6.9343-1.8588zm17.854-7.5715c3.4316-3.1803 3.4972-7.743 0.17398-12.1-2.6779-3.5109-11.542-8.4478-15.169-8.4478-3.384 0-7.3464 3.9936-7.9924 8.0553-0.73456 4.6183 3.0034 9.2768 10.092 12.578 6.435 2.9965 9.592 2.9756 12.895-0.0854zm-262.01-176.09c-0.32565-0.84861-5.5529-5.1329-11.616-9.5206-7.693-5.5671-11.584-7.8-12.877-7.3897-1.0189 0.32337-1.8525 0.29061-1.8525-0.0728 0-0.36342 3.1939-4.9101 7.0976-10.104 6.0487-8.0475 7.4156-9.3459 9.25-8.7857 4.573 1.3967 5.0047 2.097 1.9492 3.1622-1.6229 0.56576-4.3835 2.8376-6.1345 5.0484-3.1837 4.0198-3.1837 4.0198 0.87312 7.2329 2.2313 1.7672 4.1818 3.0463 4.3346 2.8425 2.7459-3.6637 4.4976-6.8437 4.7794-8.6765 0.34912-2.2702 0.36537-2.2671 3.8506 0.72246 2.5112 2.154 3.02 3.0137 1.8009 3.0429-1.9443 0.0465-7.249 6.5066-6.4304 7.8311 0.29807 0.48228 2.3576 2.1352 4.5768 3.673 4.7288 3.2771 5.7693 2.819 9.0662-3.9914 1.7116-3.5358 1.8959-4.7728 0.96901-6.5047-1.7682-3.3038-0.39112-3.5164 3.509-0.54162 2.1124 1.6112 3.2637 3.1836 2.8479 3.8894-2.5739 4.3688-13.924 19.685-14.588 19.685-0.44785 0-1.0807-0.69432-1.4064-1.5429zm238.89-7.2071c-1.6157-2.6125-4.5793-6.7051-6.5858-9.0946-4.069-4.8458-4.4711-6.1514-1.8982-6.1638 2.1506-0.0104 22.25-17.746 22.25-19.633 0-2.4659 1.5249-1.423 5.2866 3.6156 4.3417 5.8155 4.4977 6.4396 1.4162 5.6662-1.8344-0.4604-4.2019 1.0491-11.75 7.4917-5.199 4.4375-9.6321 8.24-9.8513 8.45-0.79048 0.75727 5.1718 8.37 7.013 8.9544 1.037 0.32915 2.7855 0.3128 3.8855-0.0363 1.1589-0.36782 2-0.1797 2 0.44731 0 1.2003-5.8333 5.0431-7.6642 5.049-0.64032 2e-3 -2.4861-2.1338-4.1018-4.7463zm-218.31-16.488c-0.0423-0.14416-0.15483-1.6256-0.25-3.2921-0.12655-2.2161-2.3219-5.5119-8.173-12.27-4.4-5.0819-9.0125-9.5047-10.25-9.8284-3.0191-0.78973-2.857-1.3873 1.2686-4.6792 3.5186-2.8075 3.5186-2.8075 17.165-0.24812 7.5054 1.4076 13.782 2.4233 13.948 2.2571 0.67111-0.67112-11.893-13.702-13.211-13.702-2.5201 0-1.5133-2.6918 2.0129-5.3813 4.2454-3.2381 4.9478-3.2731 4.1785-0.20817-0.49564 1.9748 1.1043 4.5505 8.8515 14.25 5.2011 6.5117 9.4745 12.161 9.4966 12.554 0.0221 0.39315-0.81916 1.1747-1.8694 1.7367-1.4049 0.75188-5.8086 0.2322-16.665-1.9666-8.1155-1.6437-14.929-2.8148-15.141-2.6026-0.21227 0.21227 2.3769 3.5881 5.7537 7.5018 4.4488 5.1561 6.8037 7.1158 8.5508 7.1158 1.3261 0 2.4104 0.3375 2.4095 0.75-2e-3 0.71237-7.9137 8.5626-8.0753 8.0121zm191.98-11.069c-5.967-3.1234-10.907-10.438-10.907-16.149 0-6.1301 3.6504-12.392 9.557-16.393 4.3015-2.9138 5.5588-3.2898 9.6875-2.8973 6.2476 0.59398 13.583 5.1707 16.477 10.281 3.3932 5.9908 3.0668 12.064-0.97158 18.08-6.0225 8.9711-15.086 11.662-23.843 7.0778zm8.1716-3.693c1.9308 0 9.3172-7.6834 11.055-11.5 2.4689-5.4209 2.3236-7.8023-0.69462-11.389-3.2356-3.8454-8.4164-5.0113-11.958-2.691-3.4515 2.2615-9.2299 10.305-10.621 14.785-0.97062 3.1254-0.88155 4.1152 0.56967 6.33 1.8655 2.8472 7.2584 5.6746 9.401 4.9289 0.73248-0.25495 1.7437-0.46354 2.2471-0.46354zm-163.59-16.124c0.39462-1.5874-0.785-5.5308-3.5528-11.876-2.279-5.225-4.5474-10.543-5.0409-11.817-0.89732-2.3175-0.89732-2.3175-3.9415-0.14984-1.7289 1.2311-3.2947 3.4205-3.6241 5.0675-0.31898 1.5949-0.91524 2.8998-1.325 2.8998-0.81179 0-3.5256-8.8319-2.893-9.4148 0.88003-0.81069 25.116-12.682 25.308-12.396 0.11442 0.17093 1.1918 1.609 2.3941 3.1956 1.2023 1.5867 2.1861 3.2781 2.1861 3.7587 0 0.48063-2.4145 0.5901-5.3656 0.24325-3.1184-0.36651-5.617-0.22386-5.9659 0.34059-0.33014 0.53417 1.7245 6.4101 4.5659 13.058 3.7754 8.8325 5.7164 12.23 7.21 12.621 1.8 0.4707 1.8656 0.70127 0.54971 1.9329-0.82175 0.76914-2.8441 1.8615-4.4941 2.4275s-3.8104 1.357-4.8008 1.7578c-1.5097 0.61097-1.7053 0.34463-1.21-1.6477zm120.01-1.7182c-5.2994-3.24-5.9223-4.5785-4.4981-9.6651 1.5716-5.613 2.7904-5.7442 3.1906-0.3432 0.55424 7.48 9.1319 10.622 11.973 4.3851 0.96962-2.1281 0.55666-3.1297-3.534-8.5715-3.6858-4.9032-4.6319-6.9679-4.6319-10.108 0-8.6909 9.8823-11.914 18.8-6.132 4.5032 2.9199 4.8404 3.7774 3.0396 7.7295-1.4952 3.2817-2.454 3.2229-3.309-0.20295-1.3512-5.4141-6.2922-8.0883-9.3305-5.05-1.9886 1.9886-1.4088 3.7478 3.3 10.012 5.6748 7.5491 6.121 12.321 1.5769 16.865-2.5006 2.5006-3.693 2.9225-8.25 2.9193-3.4038-2e-3 -6.41-0.66593-8.3269-1.8379zm-97.5-5.9923c0-0.57639 0.50303-1.3589 1.1178-1.7388 2.1242-1.3128-2.4508-26.76-5.3285-29.638-1.0758-1.0758-1.7807-2.1314-1.5664-2.3457 0.93189-0.9319 15.34-3.4436 19.753-3.4436 4.1834 0 5.1996 0.42056 7.4346 3.0767 3.2619 3.8765 3.2667 6.6453 0.0201 11.43-2.5688 3.7853-2.5688 3.7853 2.25 8.718 2.6503 2.713 6.1688 5.6449 7.8188 6.5154 3 1.5828 3 1.5828 0.19633 2.5228-5.1553 1.7285-8.8528 0.14244-15.646-6.7112-6.3821-6.4393-6.3821-6.4393-3.0945-9.5104 2.8236-2.6376 3.1979-3.5277 2.6522-6.306-0.3495-1.7792-1.3904-3.7974-2.3131-4.4849-1.7592-1.3108-8.2954-1.7511-8.2954-0.5588 0 0.38016 0.98228 6.3124 2.1828 13.183 1.5106 8.6446 2.7537 13.062 4.0365 14.345 2.4985 2.4985 1.6652 3.421-3.8349 4.2458-2.5521 0.38271-5.2576 0.93277-6.0123 1.2224s-1.3722 0.055-1.3722-0.52142zm47.5-4.8594c-7.9078-0.47122-9.3048-0.96858-7.2586-2.5841 1.1969-0.94494 1.705-4.3618 2.2381-15.05 0.61522-12.335 0.50188-14.035-1.0499-15.75-1.6958-1.8738-1.6035-1.922 3.6654-1.9151 2.9728 0.0039 8.4504 0.29472 12.173 0.64625 6.0622 0.57252 6.8304 0.88936 7.3701 3.0395 0.82893 3.3027 0.0573 3.718-3.4952 1.8809-1.6738-0.86556-4.5844-1.5737-6.4679-1.5737-3.0356 0-3.4957 0.355-4.0497 3.125-0.34375 1.7188-0.625 4.2391-0.625 5.6007 0 2.3123 0.28049 2.4478 4.25 2.0524 2.3375-0.23279 4.925-0.6156 5.75-0.85069 1.1765-0.33527 1.4487 0.41455 1.262 3.4772-0.13091 2.1476-0.40145 4.0681-0.60122 4.2679-0.19976 0.19976-1.6676-0.31707-3.262-1.1485-1.5943-0.83145-3.9113-1.5145-5.1488-1.5179-2.1032-0.0058-2.25 0.41794-2.25 6.4938 0 6.5 0 6.5 4.5957 6.5 2.5276 0 5.8888-0.76384 7.4692-1.6974 3.487-2.0598 4.1095-1.6062 3.0842 2.2477-0.74311 2.7934-1.0727 2.9541-6.2169 3.0318-2.9877 0.0451-8.1322-0.0788-11.432-0.27548z" fill="#333"/>
  </g>
 </g>
</svg>
